# xmcd CD Database Entry
#
# Track frame offsets:
# 150
# 47726
# 115910
# 185139
#
# Disc length: 3302 seconds
#
# Revision: 2
# Processed by: cddbd v1.4PL0 Copyright (c) Steve Scherf et al.
# Submitted via: tcd 2.0b
#
DISCID=340ce404
DTITLE=Fela and Africa 70/Everything Scatter Noise for Vendor Mouth
DYEAR=1900
DGENRE=
TTITLE0=Everything Scatter
TTITLE1=Who No Know Go Know
TTITLE2=Noise For Vendor Mouth
TTITLE3=Mattress
EXTD=
EXTT0=
EXTT1=
EXTT2=
EXTT3=
PLAYORDER=
